<svg width="700" height="700" xmlns="http://www.w3.org/2000/svg">

 <g>
  <title>background</title>
  <rect fill="#000000" id="canvas_background" height="702" width="702" y="-1" x="-1"/>
 </g>
 <g>
  <title>Layer 1</title>
  <path d="m248.4989,273.3996c6.0667,-11.0667 12.1333,-22.1333 18.2,-33.2c11.2,-6.1667 22.4,-12.3333 33.6,-18.5c18.5,-10.1 33.6,-18.7 33.6,-19c0,-0.3 -15.1,-8.8 -33.6,-19c-11.2333,-6.1667 -22.4667,-12.3333 -33.7,-18.5c-6.0333,-11.0667 -12.0667,-22.1333 -18.1,-33.2c-9.9,-18.3 -18.5,-33.1 -19,-33c-0.5,0.2 -9,15.2 -19,33.4c-6,11.0333 -12,22.0667 -18,33.1c-11.2667,6.1 -22.5333,12.2 -33.8,18.3c-18.6,10.1 -33.7,18.6 -33.7,18.9c0,0.3 15.1,8.8 33.7,18.9c11.2333,6.1333 22.4667,12.2667 33.7,18.4c6.0333,11 12.0667,22 18.1,33c10,18.2 18.5,33.2 19,33.4c0.5,0.2 9.1,-14.7 19,-33z" id="tSvg7995579542" fill="#fec61a"/>
  <path d="m518.9985,246.5011c5.1667,-9.4 10.3334,-18.8 15.5,-28.2c9.3334,-5.1 18.6667,-10.2 28,-15.3c15.4,-8.4 28.1,-15.6 28.2,-16.1c0.2,-0.4 -12.4,-7.6 -28,-16.1c-9.4333,-5.1334 -18.8666,-10.2667 -28.3,-15.4c-5.1333,-9.4334 -10.2666,-18.8667 -15.4,-28.3c-8.5,-15.6 -15.8,-28.3 -16.2,-28.1c-0.5,0.1 -7.7,12.8 -16.1,28.2c-5.1,9.3333 -10.2,18.6666 -15.3,28c-9.4,5.1333 -18.8,10.2666 -28.2,15.4c-15.5,8.5 -28.1,15.9 -27.9,16.4c0.1,0.5 12.8,7.7 28.1,16.1c9.3,5.1 18.6,10.2 27.9,15.3c5.1,9.3 10.2,18.6 15.3,27.9c8.4,15.3 15.6,28 16.1,28.1c0.5,0.2 7.8,-12.4 16.3,-27.9z" id="tSvgc8920d6c77" fill="#fec61a"/>
  <path d="m426.799,330.4011c14.4,-14.4 28.8,-28.8 43.2,-43.2c-11.2667,-11.2667 -22.5333,-22.5334 -33.8,-33.8c-11.2333,-11.2334 -22.4667,-22.4667 -33.7,-33.7c-14.4333,14.4333 -28.8667,28.8666 -43.3,43.3c-14.4,14.4 -28.8,28.8 -43.2,43.2c11.2667,11.2666 22.5333,22.5333 33.8,33.8c11.2333,11.2333 22.4667,22.4666 33.7,33.7c14.4333,-14.4334 28.8667,-28.8667 43.3,-43.3z" id="tSvgbe77095ba7" fill="#fec61a"/>
  <path d="m254.799,502.4011c59.5,-59.5 108.2,-108.7 108.2,-109.2c0,-1.3 -65.2,-66.5 -66.5,-66.5c-0.6,0 -49.7,48.7 -109.3,108.3c-36.0667,36.0666 -72.1333,72.1333 -108.2,108.2c11.2667,11.2666 22.5333,22.5333 33.8,33.8c11.2333,11.2333 22.4667,22.4666 33.7,33.7c36.1,-36.1 72.2,-72.2 108.3,-108.3z" id="tSvg174b0561491" fill="#fec61a"/>
  <path d="m519.1016,480.2011c5.1667,-9.4667 10.3334,-18.9334 15.5,-28.4c9.3,-5.1 18.6,-10.2 27.9,-15.3c15.4,-8.4 28,-15.7 28.1,-16.2c0,-0.5 -12.5,-7.8 -28,-16.3c-9.3666,-5.1 -18.7333,-10.2 -28.1,-15.3c-5.1333,-9.5 -10.2666,-19 -15.4,-28.5c-8.5,-15.6 -15.6,-28.5 -15.9,-28.5c-0.3,0 -7.5,12.8 -16,28.4c-5.1666,9.5 -10.3333,19 -15.5,28.5c-9.3,5.1 -18.6,10.2 -27.9,15.3c-15.4,8.4 -28.1,15.8 -28.2,16.3c-0.2,0.6 12.4,7.9 27.9,16.4c9.4,5.1 18.8,10.2 28.2,15.3c5.1667,9.4666 10.3334,18.9333 15.5,28.4c8.5,15.6 15.7,28.4 16,28.4c0.3,-0.1 7.4,-12.9 15.9,-28.5z" id="tSvg17e46defb75" fill="#fec61a"/>
 </g>
</svg>