<svg xmlns="http://www.w3.org/2000/svg" viewBox="0 0 513.70 513.70" data-guides="{&quot;vertical&quot;:[],&quot;horizontal&quot;:[]}"><defs/><path fill="#fec61a" stroke="none" fill-opacity="1" stroke-width="1" stroke-opacity="1" id="tSvg7995579542" title="Path 1" d="M170.4989 175.3996C176.5656 164.3329 182.6322 153.2663 188.6989 142.1996C199.8989 136.0329 211.0989 129.8663 222.2989 123.6996C240.7989 113.5996 255.8989 104.9996 255.8989 104.6996C255.8989 104.3996 240.7989 95.8996 222.2989 85.6996C211.0656 79.5329 199.8322 73.3663 188.5989 67.1996C182.5656 56.1329 176.5322 45.0663 170.4989 33.9996C160.5989 15.6996 151.9989 0.8996 151.4989 0.9996C150.9989 1.1996 142.4989 16.1996 132.4989 34.3996C126.4989 45.4329 120.4989 56.4663 114.4989 67.4996C103.2322 73.5996 91.9656 79.6996 80.6989 85.7996C62.0989 95.8996 46.9989 104.3996 46.9989 104.6996C46.9989 104.9996 62.0989 113.4996 80.6989 123.5996C91.9322 129.7329 103.1656 135.8663 114.3989 141.9996C120.4322 152.9996 126.4656 163.9996 132.4989 174.9996C142.4989 193.1996 150.9989 208.1996 151.4989 208.3996C151.9989 208.5996 160.5989 193.6996 170.4989 175.3996Z"/><path fill="#fec61a" stroke="none" fill-opacity="1" stroke-width="1" stroke-opacity="1" id="tSvgc8920d6c77" title="Path 2" d="M440.9985 148.5011C446.1652 139.1011 451.3319 129.7011 456.4985 120.3011C465.8319 115.2011 475.1652 110.1011 484.4985 105.0011C499.8985 96.6011 512.5985 89.4011 512.6985 88.9011C512.8985 88.5011 500.2985 81.3011 484.6985 72.8011C475.2652 67.6677 465.8319 62.5344 456.3985 57.4011C451.2652 47.9677 446.1319 38.5344 440.9985 29.1011C432.4985 13.5011 425.1985 0.8011 424.7985 1.0011C424.2985 1.1011 417.0985 13.8011 408.6985 29.2011C403.5985 38.5344 398.4985 47.8677 393.3985 57.2011C383.9985 62.3344 374.5985 67.4677 365.1985 72.6011C349.6985 81.1011 337.0985 88.5011 337.2985 89.0011C337.3985 89.5011 350.0985 96.7011 365.3985 105.1011C374.6985 110.2011 383.9985 115.3011 393.2985 120.4011C398.3985 129.7011 403.4985 139.0011 408.5985 148.3011C416.9985 163.6011 424.1985 176.3011 424.6985 176.4011C425.1985 176.6011 432.4985 164.0011 440.9985 148.5011Z"/><path fill="#fec61a" stroke="none" fill-opacity="1" stroke-width="1" stroke-opacity="1" id="tSvgbe77095ba7" title="Path 3" d="M348.799 232.4011C363.199 218.0011 377.599 203.6011 391.999 189.2011C380.7323 177.9344 369.4657 166.6677 358.199 155.4011C346.9657 144.1677 335.7323 132.9344 324.499 121.7011C310.0657 136.1344 295.6323 150.5677 281.199 165.0011C266.799 179.4011 252.399 193.8011 237.999 208.2011C249.2657 219.4677 260.5323 230.7344 271.799 242.0011C283.0323 253.2344 294.2657 264.4677 305.499 275.7011C319.9323 261.2677 334.3657 246.8344 348.799 232.4011Z"/><path fill="#fec61a" stroke="none" fill-opacity="1" stroke-width="1" stroke-opacity="1" id="tSvg174b0561491" title="Path 4" d="M176.799 404.4011C236.299 344.9011 284.999 295.7011 284.999 295.2011C284.999 293.9011 219.799 228.7011 218.499 228.7011C217.899 228.7011 168.799 277.4011 109.199 337.0011C73.1323 373.0677 37.0657 409.1344 0.999 445.2011C12.2657 456.4677 23.5323 467.7344 34.799 479.0011C46.0323 490.2344 57.2657 501.4677 68.499 512.7011C104.599 476.6011 140.699 440.5011 176.799 404.4011Z"/><path fill="#fec61a" stroke="none" fill-opacity="1" stroke-width="1" stroke-opacity="1" id="tSvg17e46defb75" title="Path 5" d="M441.1016 382.2011C446.2683 372.7344 451.435 363.2677 456.6016 353.8011C465.9016 348.7011 475.2016 343.6011 484.5016 338.5011C499.9016 330.1011 512.5016 322.8011 512.6016 322.3011C512.6016 321.8011 500.1016 314.5011 484.6016 306.0011C475.235 300.9011 465.8683 295.8011 456.5016 290.7011C451.3683 281.2011 446.235 271.7011 441.1016 262.2011C432.6016 246.6011 425.5016 233.7011 425.2016 233.7011C424.9016 233.7011 417.7016 246.5011 409.2016 262.1011C404.035 271.6011 398.8683 281.1011 393.7016 290.6011C384.4016 295.7011 375.1016 300.8011 365.8016 305.9011C350.4016 314.3011 337.7016 321.7011 337.6016 322.2011C337.4016 322.8011 350.0016 330.1011 365.5016 338.6011C374.9016 343.7011 384.3016 348.8011 393.7016 353.9011C398.8683 363.3677 404.035 372.8344 409.2016 382.3011C417.7016 397.9011 424.9016 410.7011 425.2016 410.7011C425.5016 410.6011 432.6016 397.8011 441.1016 382.2011Z"/></svg>